<?xml version="1.0" encoding="UTF-8" standalone="no"?>
<svg
   xmlns:dc="http://purl.org/dc/elements/1.1/"
   xmlns:cc="http://creativecommons.org/ns#"
   xmlns:rdf="http://www.w3.org/1999/02/22-rdf-syntax-ns#"
   xmlns:svg="http://www.w3.org/2000/svg"
   xmlns="http://www.w3.org/2000/svg"
   xmlns:sodipodi="http://sodipodi.sourceforge.net/DTD/sodipodi-0.dtd"
   xmlns:inkscape="http://www.inkscape.org/namespaces/inkscape"
   data-v-1084b650=""
   viewBox="0 0 237.8235 43.328991"
   version="1.1"
   id="svg16"
   sodipodi:docname="icon-left-font.svg"
   width="237.8235"
   height="43.328991"
   inkscape:version="0.92.4 (5da689c313, 2019-01-14)">
  <metadata
     id="metadata22">
    <rdf:RDF>
      <cc:Work
         rdf:about="">
        <dc:format>image/svg+xml</dc:format>
        <dc:type
           rdf:resource="http://purl.org/dc/dcmitype/StillImage" />
      </cc:Work>
    </rdf:RDF>
  </metadata>
  <defs
     id="defs20" />
  <sodipodi:namedview
     pagecolor="#ffffff"
     bordercolor="#666666"
     borderopacity="1"
     objecttolerance="10"
     gridtolerance="10"
     guidetolerance="10"
     inkscape:pageopacity="0"
     inkscape:pageshadow="2"
     inkscape:window-width="1920"
     inkscape:window-height="1017"
     id="namedview18"
     showgrid="false"
     inkscape:zoom="4"
     inkscape:cx="128.92454"
     inkscape:cy="38.833463"
     inkscape:window-x="-8"
     inkscape:window-y="-8"
     inkscape:window-maximized="1"
     inkscape:current-layer="svg16" />
  <path
     style="fill:#ffd7d7;fill-opacity:1;stroke:none;stroke-width:0.51828933;stroke-opacity:1"
     inkscape:connector-curvature="0"
     d="m 21.66449,43.32899 c 5.80484,0 11.24688,-2.22864 15.34137,-6.32313 4.09448,-4.09448 6.32313,-9.53652 6.32313,-15.34136 0,-5.80484 -2.22865,-11.24688 -6.32313,-15.34137 C 32.91137,2.22865 27.46933,0 21.66449,0 15.85965,0 10.41761,2.22865 6.32313,6.32313 2.22864,10.41762 0,15.85966 0,21.6645 c 0,5.80484 2.22864,11.24688 6.32313,15.34136 4.09448,4.09449 9.53652,6.32313 15.34136,6.32313 z m 1.24389,-3.67985 c -0.41463,0.0518 -0.82926,0.0518 -1.24389,0.0518 -0.57012,0 -1.14024,-0.0518 -1.71035,-0.10366 -1.86585,-2.90242 -3.26523,-6.01216 -4.09449,-9.27738 h 9.17372 c 0.31097,0.77744 0.88109,1.50304 1.55487,1.9695 -0.88109,2.59145 -2.12499,5.02741 -3.67986,7.35971 z m 4.92375,-1.03658 c 0.98475,-1.81401 1.76219,-3.62803 2.38413,-5.5457 1.50304,-0.31097 2.69511,-1.34755 3.26523,-2.74693 h 3.99083 c -2.07316,3.78351 -5.5457,6.73776 -9.64019,8.29263 z m 11.817,-16.94806 c 0,1.71035 -0.25914,3.36888 -0.67377,4.97558 h -5.59753 c -0.31097,-0.67378 -0.82926,-1.29573 -1.45121,-1.76219 0.10366,-1.14023 0.15549,-2.28047 0.15549,-3.42071 0,-1.60669 -0.10366,-3.21339 -0.31098,-4.76826 h 7.1524 c 0.51829,1.55487 0.7256,3.26522 0.7256,4.97558 z m -2.17681,-8.65543 h -6.32313 c -0.67378,-2.8506 -1.65853,-5.5457 -3.00608,-8.13715 3.939,1.50304 7.25605,4.45729 9.32921,8.13715 z m -9.01824,8.44811 c 0,0.88109 -0.0518,1.76219 -0.10366,2.64328 -1.45121,0.31097 -2.64327,1.24389 -3.21339,2.53962 H 15.13404 c -0.20731,-1.55487 -0.3628,-3.16157 -0.3628,-4.71644 0,-0.98475 0.0518,-1.9695 0.15549,-2.95425 1.34755,-0.25914 2.43596,-1.14023 3.10973,-2.28047 h 10.10665 c 0.20731,1.55487 0.31097,3.16157 0.31097,4.76826 z M 20.31694,3.73169 c 0.46646,-0.0518 0.93292,-0.0518 1.34755,-0.0518 0.51829,0 1.03658,0 1.55487,0.0518 1.86584,2.90242 3.26522,6.01215 4.09448,9.27738 h -9.01823 c -0.31097,-0.8811 -0.88109,-1.65853 -1.6067,-2.22865 0.93292,-2.48779 2.12499,-4.82009 3.62803,-7.04873 z M 15.39319,4.76827 C 14.5121,6.42679 13.73466,8.18898 13.11272,9.95116 11.50602,10.26213 10.2103,11.4542 9.69201,12.95724 H 5.90849 C 7.92982,9.27738 11.2987,6.32313 15.39319,4.76827 Z M 3.67985,21.6645 c 0,-1.71036 0.25914,-3.42071 0.72561,-4.97558 h 5.64935 c 0.31097,0.57012 0.77743,1.08841 1.29572,1.50304 -0.10366,1.24389 -0.20731,2.48779 -0.20731,3.73168 0,1.6067 0.10365,3.16157 0.31097,4.71644 H 4.40546 C 3.88717,25.03338 3.67985,23.37485 3.67985,21.6645 Z m 8.39629,8.6036 c 0.67377,2.79876 1.65852,5.5457 3.00608,8.13714 -3.939,-1.55486 -7.20423,-4.45728 -9.22555,-8.13714 z"
     id="path7-1" />
  <!---->
  <!---->
  <!---->
  <g
     data-v-1084b650=""
     id="b5a93e15-ef7c-9d7a-680b-cdb17474f15f"
     transform="matrix(2.2,0,0,2.2,50.867496,1.89749)"
     style="fill:#fd2d01">
    <path
       d="m 5.41,12.67 v 0 q -2.18,0 -3.65,-1.47 v 0 0 Q 0.29,9.73 0.29,7.53 v 0 0 q 0,-2.16 1.47,-3.64 v 0 0 Q 3.23,2.42 5.41,2.42 v 0 0 q 2.19,0 3.76,1.37 v 0 L 7.81,5.28 v 0 Q 6.76,4.46 5.41,4.46 v 0 0 Q 4.03,4.47 3.18,5.33 v 0 0 Q 2.34,6.18 2.34,7.51 v 0 0 q 0,1.43 0.85,2.27 v 0 0 q 0.85,0.84 2.23,0.84 v 0 0 q 1.11,0 1.7,-0.43 v 0 -1.76 L 5.76,8.44 V 6.52 h 3.41 v 4.79 0 q -1.56,1.36 -3.76,1.36 z m 7.43,-6.84 v 0.76 0 q 0.74,-0.75 1.79,-0.75 v 0 0 q 0.33,0 0.63,0.05 v 0 l -0.3,1.89 v 0 Q 14.63,7.48 14.01,7.46 v 0 0 q -0.7,0.05 -1.17,1.01 v 0 4.2 H 10.93 V 6.04 Z m 6.77,6.91 v 0 q -1.49,0 -2.49,-1 v 0 0 q -0.99,-1 -0.99,-2.48 v 0 0 q 0,-1.49 0.99,-2.49 v 0 0 q 1,-1 2.49,-1 v 0 0 q 1.49,0 2.49,1 v 0 0 q 1,1 1,2.49 v 0 0 q 0,1.49 -1,2.48 v 0 0 q -1,1 -2.49,1 z m 0,-1.65 v 0 0 q 0.77,0 1.26,-0.53 v 0 0 q 0.49,-0.52 0.49,-1.3 v 0 0 q 0,-0.78 -0.49,-1.3 v 0 0 Q 20.38,7.43 19.6,7.43 v 0 0 q -0.77,0 -1.26,0.53 v 0 0 q -0.48,0.52 -0.48,1.3 v 0 0 q 0,0.78 0.48,1.3 v 0 0 q 0.49,0.53 1.27,0.53 z m 8.91,-0.84 v 0 -4.42 h 1.91 v 6.84 h -1.91 v -0.62 0 q -0.69,0.62 -1.64,0.62 v 0 0 q -1.3,0 -1.98,-0.79 v 0 0 q -0.69,-0.79 -0.69,-1.81 v 0 -4.24 h 1.92 v 3.76 0 q 0,0.68 0.34,1.06 v 0 0 q 0.34,0.38 1.03,0.4 v 0 0 q 0.6,-0.04 1.02,-0.8 z m 5.45,5.3 -1.91,-0.01 v -9.5 l 1.91,-0.21 v 0.55 0 q 0.77,-0.55 1.51,-0.55 v 0 0 q 1.57,0 2.49,1.03 v 0 0 q 0.93,1.02 0.93,2.39 v 0 0 q 0,1.37 -0.93,2.39 v 0 0 q -0.92,1.03 -2.49,1.03 v 0 0 Q 34.45,12.6 33.97,12.11 v 0 z m 0,-6.92 v 0 1.11 0 q 0.14,1.15 1.44,1.35 v 0 0 q 1.64,-0.13 1.85,-1.7 v 0 0 Q 37.19,7.47 35.41,7.4 v 0 0 q -1.3,0.21 -1.44,1.23 z m 9.38,4.11 v 0 q -1.49,0 -2.48,-1 v 0 0 q -1,-1 -1,-2.48 v 0 0 q 0,-1.49 1,-2.49 v 0 0 q 0.99,-1 2.48,-1 v 0 0 q 1.49,0 2.49,1 v 0 0 q 1,1 1,2.49 v 0 0 q 0,1.49 -1,2.48 v 0 0 q -1,1 -2.49,1 z m 0,-1.65 v 0 0 q 0.78,0 1.26,-0.53 v 0 0 q 0.49,-0.52 0.49,-1.3 v 0 0 q 0,-0.78 -0.49,-1.3 v 0 0 Q 44.13,7.43 43.34,7.43 v 0 0 q -0.77,0 -1.26,0.53 v 0 0 Q 41.6,8.48 41.6,9.26 v 0 0 q 0,0.78 0.48,1.3 v 0 0 q 0.49,0.53 1.27,0.53 z M 50.03,8.3 v 0 4.37 H 48.11 V 6.04 l 1.92,-0.21 v 0.61 0 q 0.64,-0.6 1.64,-0.6 v 0 0 q 1.29,0 1.98,0.78 v 0 0 Q 54.4,5.84 55.9,5.84 v 0 0 q 1.3,0 1.99,0.78 v 0 0 q 0.68,0.79 0.68,1.82 v 0 4.23 h -1.91 v -3.76 0 q 0,-0.68 -0.31,-1.06 v 0 0 q -0.31,-0.37 -1,-0.39 v 0 0 Q 54.78,7.5 54.37,8.21 v 0 0 q -0.04,0.21 -0.04,0.43 v 0 4.03 h -1.91 v -3.76 0 q 0,-0.68 -0.31,-1.06 v 0 0 q -0.31,-0.37 -1,-0.39 v 0 0 Q 50.48,7.5 50.03,8.3 Z M 61.14,7.82 60.39,6.66 v 0 q 1.3,-0.82 3.01,-0.82 v 0 0 q 1.23,0 1.94,0.68 v 0 0 q 0.72,0.69 0.72,2.05 v 0 4.1 h -1.91 v -0.54 0 q -0.84,0.54 -1.51,0.54 v 0 0 q -1.36,0 -2.05,-0.58 v 0 0 q -0.68,-0.58 -0.68,-1.6 v 0 0 q 0,-0.96 0.65,-1.71 v 0 0 Q 61.2,8.03 62.64,8.03 v 0 0 q 0.67,0 1.51,0.41 v 0 -0.21 0 Q 64.13,7.48 63.05,7.41 v 0 0 q -1.23,0 -1.91,0.41 z m 3.01,2.8 v 0 -0.77 0 Q 63.88,9.32 62.85,9.32 v 0 0 q -1.23,0.14 -1.3,0.96 v 0 0 q 0.07,0.81 1.3,0.88 v 0 0 q 1.03,0 1.3,-0.54 z m 5.54,-2.29 v 0 4.34 H 67.77 V 6.04 l 1.92,-0.21 v 0.62 0 q 0.69,-0.61 1.64,-0.61 v 0 0 q 1.3,0 1.98,0.78 v 0 0 q 0.68,0.79 0.68,1.82 v 0 4.23 h -1.91 v -3.76 0 q 0,-0.68 -0.34,-1.06 v 0 0 Q 71.39,7.48 70.7,7.46 v 0 0 Q 70.11,7.5 69.69,8.33 Z m 7.82,4.34 H 75.6 V 5.83 h 1.91 z M 75.53,4.2 v 0 0 q 0,0.41 0.27,0.68 v 0 0 q 0.28,0.27 0.76,0.27 v 0 0 q 0.47,0 0.75,-0.27 v 0 0 Q 77.58,4.61 77.58,4.2 v 0 0 q 0,-0.41 -0.27,-0.69 v 0 0 Q 77.03,3.23 76.54,3.23 v 0 0 q -0.46,0 -0.74,0.28 v 0 0 Q 75.53,3.79 75.53,4.2 Z m 4.53,3.62 -0.75,-1.16 v 0 q 1.3,-0.82 3.01,-0.82 v 0 0 q 1.23,0 1.95,0.68 v 0 0 q 0.71,0.69 0.71,2.05 v 0 4.1 h -1.91 v -0.54 0 q -0.83,0.54 -1.5,0.54 v 0 0 q -1.37,0 -2.05,-0.58 v 0 0 q -0.69,-0.58 -0.69,-1.6 v 0 0 q 0,-0.96 0.65,-1.71 v 0 0 q 0.64,-0.75 2.09,-0.75 v 0 0 q 0.66,0 1.5,0.41 v 0 -0.21 0 Q 83.06,7.48 81.98,7.41 v 0 0 q -1.23,0 -1.92,0.41 z m 3.01,2.8 v 0 -0.77 0 Q 82.8,9.32 81.77,9.32 v 0 0 q -1.23,0.14 -1.3,0.96 v 0 0 q 0.07,0.81 1.3,0.88 v 0 0 q 1.03,0 1.3,-0.54 z"
       id="path4"
       inkscape:connector-curvature="0" />
  </g>
  <!---->
</svg>
