<?xml version="1.0" encoding="UTF-8" standalone="no"?>
<svg
   xmlns:dc="http://purl.org/dc/elements/1.1/"
   xmlns:cc="http://creativecommons.org/ns#"
   xmlns:rdf="http://www.w3.org/1999/02/22-rdf-syntax-ns#"
   xmlns:svg="http://www.w3.org/2000/svg"
   xmlns="http://www.w3.org/2000/svg"
   xmlns:sodipodi="http://sodipodi.sourceforge.net/DTD/sodipodi-0.dtd"
   xmlns:inkscape="http://www.inkscape.org/namespaces/inkscape"
   data-v-1084b650=""
   viewBox="0 0 237.132 121.32125"
   version="1.1"
   id="svg16"
   sodipodi:docname="icon-font.svg"
   width="237.132"
   height="121.32125"
   inkscape:version="0.92.4 (5da689c313, 2019-01-14)">
  <metadata
     id="metadata22">
    <rdf:RDF>
      <cc:Work
         rdf:about="">
        <dc:format>image/svg+xml</dc:format>
        <dc:type
           rdf:resource="http://purl.org/dc/dcmitype/StillImage" />
      </cc:Work>
    </rdf:RDF>
  </metadata>
  <defs
     id="defs20" />
  <sodipodi:namedview
     pagecolor="#ffffff"
     bordercolor="#666666"
     borderopacity="1"
     objecttolerance="10"
     gridtolerance="10"
     guidetolerance="10"
     inkscape:pageopacity="0"
     inkscape:pageshadow="2"
     inkscape:window-width="1920"
     inkscape:window-height="1017"
     id="namedview18"
     showgrid="false"
     inkscape:zoom="2.2250293"
     inkscape:cx="88.616953"
     inkscape:cy="48.447872"
     inkscape:window-x="-8"
     inkscape:window-y="-8"
     inkscape:window-maximized="1"
     inkscape:current-layer="svg16" />
  <path
     style="fill:#ffd7d7;fill-opacity:1;stroke-width:0.87952131"
     inkscape:connector-curvature="0"
     d="m 118.566,73.527985 c 9.85063,0 19.08561,-3.78194 26.03383,-10.73016 6.94821,-6.94822 10.73016,-16.18319 10.73016,-26.03383 0,-9.85064 -3.78195,-19.08561 -10.73016,-26.03383 C 137.65161,3.78195 128.41663,0 118.566,0 108.71536,0 99.480384,3.78195 92.532174,10.730165 c -6.94822,6.94822 -10.73016,16.18319 -10.73016,26.03383 0,9.85064 3.78194,19.08561 10.73016,26.03383 6.94821,6.94822 16.183186,10.73016 26.033826,10.73016 z m 2.11085,-6.2446 c -0.70362,0.088 -1.40724,0.088 -2.11085,0.088 -0.96748,0 -1.93495,-0.088 -2.90243,-0.1759 -3.16627,-4.92532 -5.54098,-10.20245 -6.94821,-15.74343 h 15.56752 c 0.52772,1.31928 1.49519,2.55061 2.63857,3.34218 -1.49519,4.3976 -3.60604,8.53135 -6.2446,12.4892 z m 8.35545,-1.75904 c 1.67109,-3.07833 2.99037,-6.15665 4.0458,-9.41088 2.55061,-0.52771 4.57351,-2.28675 5.54098,-4.66146 h 6.77232 c -3.51809,6.4205 -9.41088,11.43378 -16.3591,14.07234 z m 20.05308,-28.76035 c 0,2.90242 -0.43976,5.71689 -1.14337,8.44341 h -9.49883 c -0.52772,-1.14338 -1.40724,-2.19881 -2.46266,-2.99038 0.1759,-1.93494 0.26385,-3.86989 0.26385,-5.80484 0,-2.72651 -0.1759,-5.45303 -0.52771,-8.09159 h 12.13739 c 0.87953,2.63856 1.23133,5.54098 1.23133,8.4434 z m -3.69398,-14.688 h -10.73016 c -1.14338,-4.83737 -2.81447,-9.41088 -5.10123,-13.808495 6.68436,2.550615 12.3133,7.563895 15.83139,13.808495 z m -15.30368,14.33619 c 0,1.49519 -0.0879,2.99038 -0.1759,4.48556 -2.46266,0.52772 -4.48556,2.11085 -5.45303,4.30966 h -16.97476 c -0.35181,-2.63857 -0.61567,-5.36508 -0.61567,-8.00365 0,-1.67109 0.088,-3.34218 0.26386,-5.01327 2.28675,-0.43976 4.13375,-1.93495 5.27713,-3.86989 h 17.15066 c 0.35181,2.63856 0.52771,5.36508 0.52771,8.09159 z M 116.27924,6.33256 c 0.79157,-0.088 1.58314,-0.088 2.28676,-0.088 0.87952,0 1.75904,0 2.63856,0.088 3.16628,4.925315 5.54098,10.202445 6.94822,15.743435 h -15.30367 c -0.52772,-1.49519 -1.49519,-2.81447 -2.72652,-3.78195 1.58314,-4.2217 3.60604,-8.179545 6.15665,-11.961485 z m -8.35545,1.75904 c -1.49519,2.814465 -2.81447,5.804845 -3.8699,8.795215 -2.72651,0.52771 -4.925306,2.55061 -5.804836,5.10122 h -6.4205 c 3.43013,-6.2446 9.147016,-11.25787 16.095236,-13.896435 z M 88.046614,36.763995 c 0,-2.90242 0.43976,-5.80484 1.23133,-8.4434 h 9.58678 c 0.52771,0.96747 1.319276,1.84699 2.198796,2.55061 -0.1759,2.11085 -0.35181,4.2217 -0.35181,6.33255 0,2.72652 0.17591,5.36508 0.52772,8.00365 H 89.277944 c -0.87952,-2.72652 -1.23133,-5.54099 -1.23133,-8.44341 z m 14.248236,14.60006 c 1.14338,4.74941 2.81447,9.41087 5.10122,13.80848 -6.68436,-2.63856 -12.225336,-7.56388 -15.655466,-13.80848 z"
     id="path7-8" />
  <!---->
  <!---->
  <!---->
  <g
     data-v-1084b650=""
     id="7e319840-739a-a0f1-f316-ea813584ba79"
     transform="matrix(2.8,0,0,2.8,-0.81199963,77.781245)"
     style="fill:#fd2d01">
    <path
       d="m 5.41,12.67 v 0 q -2.18,0 -3.65,-1.47 v 0 0 Q 0.29,9.73 0.29,7.53 v 0 0 q 0,-2.16 1.47,-3.64 v 0 0 Q 3.23,2.42 5.41,2.42 v 0 0 q 2.19,0 3.76,1.37 v 0 L 7.81,5.28 v 0 Q 6.76,4.46 5.41,4.46 v 0 0 Q 4.03,4.47 3.18,5.33 v 0 0 Q 2.34,6.18 2.34,7.51 v 0 0 q 0,1.43 0.85,2.27 v 0 0 q 0.85,0.84 2.23,0.84 v 0 0 q 1.11,0 1.7,-0.43 v 0 -1.76 L 5.76,8.44 V 6.52 h 3.41 v 4.79 0 q -1.56,1.36 -3.76,1.36 z m 7.43,-6.84 v 0.76 0 q 0.74,-0.75 1.79,-0.75 v 0 0 q 0.33,0 0.63,0.05 v 0 l -0.3,1.89 v 0 Q 14.63,7.48 14.01,7.46 v 0 0 q -0.7,0.05 -1.17,1.01 v 0 4.2 H 10.93 V 6.04 Z m 6.77,6.91 v 0 q -1.49,0 -2.49,-1 v 0 0 q -0.99,-1 -0.99,-2.48 v 0 0 q 0,-1.49 0.99,-2.49 v 0 0 q 1,-1 2.49,-1 v 0 0 q 1.49,0 2.49,1 v 0 0 q 1,1 1,2.49 v 0 0 q 0,1.49 -1,2.48 v 0 0 q -1,1 -2.49,1 z m 0,-1.65 v 0 0 q 0.77,0 1.26,-0.53 v 0 0 q 0.49,-0.52 0.49,-1.3 v 0 0 q 0,-0.78 -0.49,-1.3 v 0 0 Q 20.38,7.43 19.6,7.43 v 0 0 q -0.77,0 -1.26,0.53 v 0 0 q -0.48,0.52 -0.48,1.3 v 0 0 q 0,0.78 0.48,1.3 v 0 0 q 0.49,0.53 1.27,0.53 z m 8.91,-0.84 v 0 -4.42 h 1.91 v 6.84 h -1.91 v -0.62 0 q -0.69,0.62 -1.64,0.62 v 0 0 q -1.3,0 -1.98,-0.79 v 0 0 q -0.69,-0.79 -0.69,-1.81 v 0 -4.24 h 1.92 v 3.76 0 q 0,0.68 0.34,1.06 v 0 0 q 0.34,0.38 1.03,0.4 v 0 0 q 0.6,-0.04 1.02,-0.8 z m 5.45,5.3 -1.91,-0.01 v -9.5 l 1.91,-0.21 v 0.55 0 q 0.77,-0.55 1.51,-0.55 v 0 0 q 1.57,0 2.49,1.03 v 0 0 q 0.93,1.02 0.93,2.39 v 0 0 q 0,1.37 -0.93,2.39 v 0 0 q -0.92,1.03 -2.49,1.03 v 0 0 Q 34.45,12.6 33.97,12.11 v 0 z m 0,-6.92 v 0 1.11 0 q 0.14,1.15 1.44,1.35 v 0 0 q 1.64,-0.13 1.85,-1.7 v 0 0 Q 37.19,7.47 35.41,7.4 v 0 0 q -1.3,0.21 -1.44,1.23 z m 9.38,4.11 v 0 q -1.49,0 -2.48,-1 v 0 0 q -1,-1 -1,-2.48 v 0 0 q 0,-1.49 1,-2.49 v 0 0 q 0.99,-1 2.48,-1 v 0 0 q 1.49,0 2.49,1 v 0 0 q 1,1 1,2.49 v 0 0 q 0,1.49 -1,2.48 v 0 0 q -1,1 -2.49,1 z m 0,-1.65 v 0 0 q 0.78,0 1.26,-0.53 v 0 0 q 0.49,-0.52 0.49,-1.3 v 0 0 q 0,-0.78 -0.49,-1.3 v 0 0 Q 44.13,7.43 43.34,7.43 v 0 0 q -0.77,0 -1.26,0.53 v 0 0 Q 41.6,8.48 41.6,9.26 v 0 0 q 0,0.78 0.48,1.3 v 0 0 q 0.49,0.53 1.27,0.53 z M 50.03,8.3 v 0 4.37 H 48.11 V 6.04 l 1.92,-0.21 v 0.61 0 q 0.64,-0.6 1.64,-0.6 v 0 0 q 1.29,0 1.98,0.78 v 0 0 Q 54.4,5.84 55.9,5.84 v 0 0 q 1.3,0 1.99,0.78 v 0 0 q 0.68,0.79 0.68,1.82 v 0 4.23 h -1.91 v -3.76 0 q 0,-0.68 -0.31,-1.06 v 0 0 q -0.31,-0.37 -1,-0.39 v 0 0 Q 54.78,7.5 54.37,8.21 v 0 0 q -0.04,0.21 -0.04,0.43 v 0 4.03 h -1.91 v -3.76 0 q 0,-0.68 -0.31,-1.06 v 0 0 q -0.31,-0.37 -1,-0.39 v 0 0 Q 50.48,7.5 50.03,8.3 Z M 61.14,7.82 60.39,6.66 v 0 q 1.3,-0.82 3.01,-0.82 v 0 0 q 1.23,0 1.94,0.68 v 0 0 q 0.72,0.69 0.72,2.05 v 0 4.1 h -1.91 v -0.54 0 q -0.84,0.54 -1.51,0.54 v 0 0 q -1.36,0 -2.05,-0.58 v 0 0 q -0.68,-0.58 -0.68,-1.6 v 0 0 q 0,-0.96 0.65,-1.71 v 0 0 Q 61.2,8.03 62.64,8.03 v 0 0 q 0.67,0 1.51,0.41 v 0 -0.21 0 Q 64.13,7.48 63.05,7.41 v 0 0 q -1.23,0 -1.91,0.41 z m 3.01,2.8 v 0 -0.77 0 Q 63.88,9.32 62.85,9.32 v 0 0 q -1.23,0.14 -1.3,0.96 v 0 0 q 0.07,0.81 1.3,0.88 v 0 0 q 1.03,0 1.3,-0.54 z m 5.54,-2.29 v 0 4.34 H 67.77 V 6.04 l 1.92,-0.21 v 0.62 0 q 0.69,-0.61 1.64,-0.61 v 0 0 q 1.3,0 1.98,0.78 v 0 0 q 0.68,0.79 0.68,1.82 v 0 4.23 h -1.91 v -3.76 0 q 0,-0.68 -0.34,-1.06 v 0 0 Q 71.39,7.48 70.7,7.46 v 0 0 Q 70.11,7.5 69.69,8.33 Z m 7.82,4.34 H 75.6 V 5.83 h 1.91 z M 75.53,4.2 v 0 0 q 0,0.41 0.27,0.68 v 0 0 q 0.28,0.27 0.76,0.27 v 0 0 q 0.47,0 0.75,-0.27 v 0 0 Q 77.58,4.61 77.58,4.2 v 0 0 q 0,-0.41 -0.27,-0.69 v 0 0 Q 77.03,3.23 76.54,3.23 v 0 0 q -0.46,0 -0.74,0.28 v 0 0 Q 75.53,3.79 75.53,4.2 Z m 4.53,3.62 -0.75,-1.16 v 0 q 1.3,-0.82 3.01,-0.82 v 0 0 q 1.23,0 1.95,0.68 v 0 0 q 0.71,0.69 0.71,2.05 v 0 4.1 h -1.91 v -0.54 0 q -0.83,0.54 -1.5,0.54 v 0 0 q -1.37,0 -2.05,-0.58 v 0 0 q -0.69,-0.58 -0.69,-1.6 v 0 0 q 0,-0.96 0.65,-1.71 v 0 0 q 0.64,-0.75 2.09,-0.75 v 0 0 q 0.66,0 1.5,0.41 v 0 -0.21 0 Q 83.06,7.48 81.98,7.41 v 0 0 q -1.23,0 -1.92,0.41 z m 3.01,2.8 v 0 -0.77 0 Q 82.8,9.32 81.77,9.32 v 0 0 q -1.23,0.14 -1.3,0.96 v 0 0 q 0.07,0.81 1.3,0.88 v 0 0 q 1.03,0 1.3,-0.54 z"
       id="path4"
       inkscape:connector-curvature="0" />
  </g>
  <!---->
</svg>
